<?xml version="1.0" standalone="no"?>
<!DOCTYPE svg PUBLIC "-//W3C//DTD SVG 20010904//EN"
 "http://www.w3.org/TR/2001/REC-SVG-20010904/DTD/svg10.dtd">
<svg version="1.0" xmlns="http://www.w3.org/2000/svg"
 width="512.000000pt" height="512.000000pt" viewBox="0 0 512.000000 512.000000"
 preserveAspectRatio="xMidYMid meet">
<metadata>
Created by potrace 1.14, written by Peter Selinger 2001-2017
</metadata>
<g transform="translate(0.000000,512.000000) scale(0.100000,-0.100000)"
fill="#000000" stroke="none">
<path d="M0 2560 l0 -2560 2560 0 2560 0 0 2560 0 2560 -2560 0 -2560 0 0
-2560z m2912 1787 c383 -57 651 -214 872 -510 166 -222 276 -515 323 -857 26
-193 26 -663 -1 -835 -61 -396 -206 -716 -433 -956 -133 -140 -303 -243 -515
-314 -233 -77 -351 -85 -1265 -85 l-763 0 0 1791 0 1790 838 -4 c704 -3 854
-6 944 -20z"/>
<path d="M1850 2581 l0 -1181 348 0 c191 0 399 5 462 10 383 34 571 194 666
567 41 162 56 324 57 593 0 391 -31 577 -129 779 -48 97 -67 125 -133 191 -59
59 -96 86 -161 118 -162 80 -247 91 -732 99 l-378 6 0 -1182z"/>
</g>
</svg>
